<?xml version="1.0" encoding="utf-8"?>
<svg viewBox="453.541 238 24 24" xmlns="http://www.w3.org/2000/svg">
  <path d="M 465.541 238 C 458.924 238 453.541 243.383 453.541 250 C 453.541 256.617 458.924 262 465.541 262 C 472.158 262 477.541 256.617 477.541 250 C 477.541 243.383 472.158 238 465.541 238 Z M 458.541 248 C 458.541 247.447 459.989 246 460.541 246 L 461.541 246 C 462.093 246 463.541 247.447 463.541 248 C 463.541 248.553 462.093 250 461.541 250 L 460.541 250 C 459.989 250 458.541 248.553 458.541 248 Z M 470.541 255 L 460.541 255 C 459.989 255 459.541 254.553 459.541 254 C 459.541 253.447 459.989 253 460.541 253 L 470.541 253 C 471.093 253 471.541 253.447 471.541 254 C 471.541 254.553 471.093 255 470.541 255 Z M 470.541 250 L 469.541 250 C 468.989 250 467.541 248.553 467.541 248 C 467.541 247.447 468.989 246 469.541 246 L 470.541 246 C 471.093 246 472.541 247.447 472.541 248 C 472.541 248.553 471.093 250 470.541 250 Z"/>
</svg>